<svg width="28" height="28" viewBox="0 0 28 28" fill="none" xmlns="http://www.w3.org/2000/svg">
<g clip-path="url(#clip0_636_703)">
<path d="M1.75012 1.86668C-0.466548 4.20001 0.000118226 6.53334 0.000118226 14C0.000118226 20.0667 -1.16655 26.25 4.55012 27.65C6.30012 28.1167 21.7001 28.1167 23.4501 27.65C25.7835 27.0667 27.7668 25.3167 28.0001 21.8167V6.18334C27.6501 2.68334 25.5501 0.700009 22.6335 0.350009C22.1668 9.30578e-06 21.9335 9.29832e-06 18.6668 9.29832e-06C6.65012 9.29832e-06 4.08345 -0.466657 1.75012 1.86668Z" fill="url(#paint0_linear_636_703)"/>
<path d="M14 3.61662C9.80003 3.61662 5.83337 3.26662 4.20003 7.23329C3.6167 8.86662 3.6167 10.9666 3.6167 14C3.6167 16.6833 3.6167 19.1333 4.20003 20.7666C5.7167 24.7333 9.80003 24.2666 14 24.2666C18.0834 24.2666 22.1667 24.7333 23.8 20.7666C24.3834 19.1333 24.3834 17.0333 24.3834 14C24.3834 9.91662 24.5 7.34995 22.6334 5.36662C20.65 3.38329 17.9667 3.61662 14 3.61662ZM13.0667 5.48329C21.9334 5.48329 22.9834 4.54995 22.4 18.2C22.1667 22.9833 18.55 22.5166 14 22.5166C5.83337 22.5166 5.48337 22.2833 5.48337 14C5.48337 5.71662 6.18337 5.48329 13.0667 5.48329ZM19.4834 7.23329C19.1585 7.23329 18.8469 7.36235 18.6172 7.59208C18.3874 7.82181 18.2584 8.1334 18.2584 8.45829C18.2584 8.78318 18.3874 9.09476 18.6172 9.32449C18.8469 9.55422 19.1585 9.68329 19.4834 9.68329C19.7928 9.68329 20.0895 9.56037 20.3083 9.34158C20.5271 9.12279 20.65 8.82604 20.65 8.51662C20.65 8.2072 20.5271 7.91045 20.3083 7.69166C20.0895 7.47287 19.7928 7.34995 19.4834 7.34995V7.23329ZM14 8.63329C13.2953 8.63329 12.5974 8.7721 11.9463 9.0418C11.2952 9.3115 10.7036 9.70681 10.2052 10.2051C9.70689 10.7035 9.31158 11.2951 9.04188 11.9462C8.77218 12.5973 8.63337 13.2952 8.63337 14C8.63337 14.7047 8.77218 15.4026 9.04188 16.0537C9.31158 16.7048 9.70689 17.2964 10.2052 17.7948C10.7036 18.2931 11.2952 18.6884 11.9463 18.9581C12.5974 19.2278 13.2953 19.3666 14 19.3666C15.4234 19.3666 16.7884 18.8012 17.7948 17.7948C18.8013 16.7883 19.3667 15.4233 19.3667 14C19.3667 12.5766 18.8013 11.2116 17.7948 10.2051C16.7884 9.1987 15.4234 8.63329 14 8.63329ZM14 10.5C18.55 10.5 18.6667 17.5 14 17.5C9.33337 17.5 9.33337 10.5 14 10.5Z" fill="white"/>
</g>
<defs>
<linearGradient id="paint0_linear_636_703" x1="1.81872" y1="26.2876" x2="27.7433" y2="3.87563" gradientUnits="userSpaceOnUse">
<stop stop-color="#FFDD55"/>
<stop offset="0.5" stop-color="#FF543E"/>
<stop offset="1" stop-color="#C837AB"/>
</linearGradient>
<clipPath id="clip0_636_703">
<rect width="28" height="28" fill="white"/>
</clipPath>
</defs>
</svg>
